<svg width="44" height="44" viewBox="0 0 44 44" fill="none" xmlns="http://www.w3.org/2000/svg">
<path d="M0 22.3602C0 23.5837 0.467876 24.7329 1.33315 25.5982L14.0216 38.2925C14.9779 39.2488 16.5284 39.2488 17.4827 38.2925C18.44 37.3362 18.4381 35.7789 17.4827 34.8216L7.13267 24.4755L41.5686 24.4755C42.9213 24.4745 44 23.3655 44 22.0118C44 22.0088 44 21.9873 44 21.9844C44 20.6316 42.9213 19.5148 41.5686 19.5148L7.13169 19.5148L17.4798 9.17451C18.4371 8.21722 18.4371 6.66481 17.4798 5.7085C16.5235 4.75024 14.973 4.75122 14.0167 5.70948L1.33315 18.4048C0.466896 19.2681 0 20.4202 0 21.6437C0 21.7641 0 22.2398 0 22.3602Z" fill="white"/>
</svg>
